<svg xmlns="http://www.w3.org/2000/svg" width="720" height="420" viewBox="0 0 720 420" font-family="-apple-system, BlinkMacSystemFont, 'Segoe UI', 'Noto Sans KR', 'Apple SD Gothic Neo', 'Malgun Gothic', sans-serif">
  <rect width="720" height="420" fill="#fbfbf9"/>
  <text x="20.0" y="30.0" font-size="16" fill="#24292f" text-anchor="start" font-weight="600">입력 모양에 따른 이동 횟수 — 로그 축</text>
  <text x="20.0" y="50.0" font-size="11.5" fill="#6e7781" text-anchor="start" font-weight="400">같은 자료. 선형 축에서 사라졌던 작은 값이 여기서는 읽힌다</text>
  <line x1="78.0" y1="358.0" x2="696.0" y2="358.0" stroke="#dfe1e4" stroke-width="1" stroke-dasharray="none"/>
  <text x="68.0" y="362.0" font-size="10.5" fill="#6e7781" text-anchor="end" font-weight="400">100K</text>
  <line x1="78.0" y1="263.3" x2="696.0" y2="263.3" stroke="#dfe1e4" stroke-width="1" stroke-dasharray="none"/>
  <text x="68.0" y="267.3" font-size="10.5" fill="#6e7781" text-anchor="end" font-weight="400">1M</text>
  <line x1="78.0" y1="168.7" x2="696.0" y2="168.7" stroke="#dfe1e4" stroke-width="1" stroke-dasharray="none"/>
  <text x="68.0" y="172.7" font-size="10.5" fill="#6e7781" text-anchor="end" font-weight="400">10M</text>
  <line x1="78.0" y1="74.0" x2="696.0" y2="74.0" stroke="#dfe1e4" stroke-width="1" stroke-dasharray="none"/>
  <text x="68.0" y="78.0" font-size="10.5" fill="#6e7781" text-anchor="end" font-weight="400">100M</text>
  <line x1="78.0" y1="358.0" x2="696.0" y2="358.0" stroke="#6e7781" stroke-width="1" stroke-dasharray="none"/>
  <text x="20.0" y="60.0" font-size="11.5" fill="#6e7781" text-anchor="start" font-weight="400">이동 횟수</text>
  <rect x="102.6" y="206.8" width="32.1" height="151.2" fill="#0072B2"/>
  <text x="118.6" y="201.8" font-size="9.5" fill="#6e7781" text-anchor="middle" font-weight="400">4M</text>
  <rect x="137.7" y="161.8" width="32.1" height="196.2" fill="#E69F00"/>
  <text x="153.8" y="156.8" font-size="9.5" fill="#6e7781" text-anchor="middle" font-weight="400">12M</text>
  <rect x="172.8" y="306.9" width="32.1" height="51.1" fill="#009E73"/>
  <text x="188.9" y="301.9" font-size="9.5" fill="#6e7781" text-anchor="middle" font-weight="400">346K</text>
  <text x="155.2" y="376.0" font-size="11.5" fill="#24292f" text-anchor="middle" font-weight="400">무작위</text>
  <rect x="257.1" y="358.0" width="32.1" height="0.8" fill="#0072B2"/>
  <text x="273.1" y="353.0" font-size="9.5" fill="#6e7781" text-anchor="middle" font-weight="400">0</text>
  <rect x="292.2" y="358.0" width="32.1" height="0.8" fill="#E69F00"/>
  <text x="308.2" y="353.0" font-size="9.5" fill="#6e7781" text-anchor="middle" font-weight="400">0</text>
  <rect x="327.3" y="358.0" width="32.1" height="0.8" fill="#009E73"/>
  <text x="343.4" y="353.0" font-size="9.5" fill="#6e7781" text-anchor="middle" font-weight="400">0</text>
  <text x="309.8" y="376.0" font-size="11.5" fill="#24292f" text-anchor="middle" font-weight="400">정렬됨</text>
  <rect x="411.6" y="177.8" width="32.1" height="180.2" fill="#0072B2"/>
  <text x="427.6" y="172.8" font-size="9.5" fill="#6e7781" text-anchor="middle" font-weight="400">8M</text>
  <rect x="446.7" y="132.7" width="32.1" height="225.3" fill="#E69F00"/>
  <text x="462.8" y="127.7" font-size="9.5" fill="#6e7781" text-anchor="middle" font-weight="400">24M</text>
  <rect x="481.8" y="316.2" width="32.1" height="41.8" fill="#009E73"/>
  <text x="497.9" y="311.2" font-size="9.5" fill="#6e7781" text-anchor="middle" font-weight="400">276K</text>
  <text x="464.2" y="376.0" font-size="11.5" fill="#24292f" text-anchor="middle" font-weight="400">역순</text>
  <rect x="566.1" y="211.0" width="32.1" height="147.0" fill="#0072B2"/>
  <text x="582.1" y="206.0" font-size="9.5" fill="#6e7781" text-anchor="middle" font-weight="400">3.6M</text>
  <rect x="601.2" y="165.9" width="32.1" height="192.1" fill="#E69F00"/>
  <text x="617.2" y="160.9" font-size="9.5" fill="#6e7781" text-anchor="middle" font-weight="400">11M</text>
  <rect x="636.3" y="323.1" width="32.1" height="34.9" fill="#009E73"/>
  <text x="652.4" y="318.1" font-size="9.5" fill="#6e7781" text-anchor="middle" font-weight="400">234K</text>
  <text x="618.8" y="376.0" font-size="11.5" fill="#24292f" text-anchor="middle" font-weight="400">중복많음</text>
  <line x1="78.0" y1="390.0" x2="100.0" y2="390.0" stroke="#0072B2" stroke-width="2.4" stroke-dasharray="none"/>
  <circle cx="89.0" cy="390.0" r="3" fill="#0072B2"/>
  <text x="106.0" y="394.0" font-size="11.5" fill="#24292f" text-anchor="start" font-weight="400">insertionSort</text>
  <line x1="209.8" y1="390.0" x2="231.8" y2="390.0" stroke="#E69F00" stroke-width="2.4" stroke-dasharray="7 4"/>
  <circle cx="220.8" cy="390.0" r="3" fill="#E69F00"/>
  <text x="237.8" y="394.0" font-size="11.5" fill="#24292f" text-anchor="start" font-weight="400">bubbleSort</text>
  <line x1="321.8" y1="390.0" x2="343.8" y2="390.0" stroke="#009E73" stroke-width="2.4" stroke-dasharray="2 3"/>
  <circle cx="332.8" cy="390.0" r="3" fill="#009E73"/>
  <text x="349.8" y="394.0" font-size="11.5" fill="#24292f" text-anchor="start" font-weight="400">blockSort</text>
</svg>
