<svg xmlns="http://www.w3.org/2000/svg" width="720" height="420" viewBox="0 0 720 420" font-family="-apple-system, BlinkMacSystemFont, 'Segoe UI', 'Noto Sans KR', 'Apple SD Gothic Neo', 'Malgun Gothic', sans-serif">
  <rect width="720" height="420" fill="#fbfbf9"/>
  <text x="20.0" y="30.0" font-size="16" fill="#24292f" text-anchor="start" font-weight="600">입력 모양에 따른 걸린 시간 — 선형 축</text>
  <text x="20.0" y="50.0" font-size="11.5" fill="#6e7781" text-anchor="start" font-weight="400">n = 4,000 · 막대 높이가 곧 값의 비율이다. 대신 작은 값은 바닥에 붙는다</text>
  <line x1="78.0" y1="358.0" x2="696.0" y2="358.0" stroke="#dfe1e4" stroke-width="1" stroke-dasharray="none"/>
  <text x="68.0" y="362.0" font-size="10.5" fill="#6e7781" text-anchor="end" font-weight="400">0</text>
  <line x1="78.0" y1="287.0" x2="696.0" y2="287.0" stroke="#dfe1e4" stroke-width="1" stroke-dasharray="none"/>
  <text x="68.0" y="291.0" font-size="10.5" fill="#6e7781" text-anchor="end" font-weight="400">10</text>
  <line x1="78.0" y1="216.0" x2="696.0" y2="216.0" stroke="#dfe1e4" stroke-width="1" stroke-dasharray="none"/>
  <text x="68.0" y="220.0" font-size="10.5" fill="#6e7781" text-anchor="end" font-weight="400">20</text>
  <line x1="78.0" y1="145.0" x2="696.0" y2="145.0" stroke="#dfe1e4" stroke-width="1" stroke-dasharray="none"/>
  <text x="68.0" y="149.0" font-size="10.5" fill="#6e7781" text-anchor="end" font-weight="400">30</text>
  <line x1="78.0" y1="74.0" x2="696.0" y2="74.0" stroke="#dfe1e4" stroke-width="1" stroke-dasharray="none"/>
  <text x="68.0" y="78.0" font-size="10.5" fill="#6e7781" text-anchor="end" font-weight="400">40</text>
  <line x1="78.0" y1="358.0" x2="696.0" y2="358.0" stroke="#6e7781" stroke-width="1" stroke-dasharray="none"/>
  <text x="20.0" y="60.0" font-size="11.5" fill="#6e7781" text-anchor="start" font-weight="400">시간 (ms)</text>
  <rect x="102.6" y="279.7" width="32.1" height="78.3" fill="#0072B2"/>
  <text x="118.6" y="274.7" font-size="9.5" fill="#6e7781" text-anchor="middle" font-weight="400">11</text>
  <rect x="137.7" y="148.1" width="32.1" height="209.9" fill="#E69F00"/>
  <text x="153.8" y="143.1" font-size="9.5" fill="#6e7781" text-anchor="middle" font-weight="400">30</text>
  <rect x="172.8" y="353.1" width="32.1" height="4.9" fill="#009E73"/>
  <text x="188.9" y="348.1" font-size="9.5" fill="#6e7781" text-anchor="middle" font-weight="400">0.697</text>
  <text x="155.2" y="376.0" font-size="11.5" fill="#24292f" text-anchor="middle" font-weight="400">무작위</text>
  <rect x="257.1" y="358.0" width="32.1" height="0.8" fill="#0072B2"/>
  <text x="273.1" y="353.0" font-size="9.5" fill="#6e7781" text-anchor="middle" font-weight="400">0.004</text>
  <rect x="292.2" y="358.0" width="32.1" height="0.8" fill="#E69F00"/>
  <text x="308.2" y="353.0" font-size="9.5" fill="#6e7781" text-anchor="middle" font-weight="400">0.005</text>
  <rect x="327.3" y="358.0" width="32.1" height="0.8" fill="#009E73"/>
  <text x="343.4" y="353.0" font-size="9.5" fill="#6e7781" text-anchor="middle" font-weight="400">0.005</text>
  <text x="309.8" y="376.0" font-size="11.5" fill="#24292f" text-anchor="middle" font-weight="400">정렬됨</text>
  <rect x="411.6" y="210.2" width="32.1" height="147.8" fill="#0072B2"/>
  <text x="427.6" y="205.2" font-size="9.5" fill="#6e7781" text-anchor="middle" font-weight="400">21</text>
  <rect x="446.7" y="140.5" width="32.1" height="217.5" fill="#E69F00"/>
  <text x="462.8" y="135.5" font-size="9.5" fill="#6e7781" text-anchor="middle" font-weight="400">31</text>
  <rect x="481.8" y="354.2" width="32.1" height="3.8" fill="#009E73"/>
  <text x="497.9" y="349.2" font-size="9.5" fill="#6e7781" text-anchor="middle" font-weight="400">0.53</text>
  <text x="464.2" y="376.0" font-size="11.5" fill="#24292f" text-anchor="middle" font-weight="400">역순</text>
  <rect x="566.1" y="293.8" width="32.1" height="64.2" fill="#0072B2"/>
  <text x="582.1" y="288.8" font-size="9.5" fill="#6e7781" text-anchor="middle" font-weight="400">9.0</text>
  <rect x="601.2" y="160.5" width="32.1" height="197.5" fill="#E69F00"/>
  <text x="617.2" y="155.5" font-size="9.5" fill="#6e7781" text-anchor="middle" font-weight="400">28</text>
  <rect x="636.3" y="354.8" width="32.1" height="3.2" fill="#009E73"/>
  <text x="652.4" y="349.8" font-size="9.5" fill="#6e7781" text-anchor="middle" font-weight="400">0.449</text>
  <text x="618.8" y="376.0" font-size="11.5" fill="#24292f" text-anchor="middle" font-weight="400">중복많음</text>
  <line x1="78.0" y1="390.0" x2="100.0" y2="390.0" stroke="#0072B2" stroke-width="2.4" stroke-dasharray="none"/>
  <circle cx="89.0" cy="390.0" r="3" fill="#0072B2"/>
  <text x="106.0" y="394.0" font-size="11.5" fill="#24292f" text-anchor="start" font-weight="400">insertionSort</text>
  <line x1="209.8" y1="390.0" x2="231.8" y2="390.0" stroke="#E69F00" stroke-width="2.4" stroke-dasharray="7 4"/>
  <circle cx="220.8" cy="390.0" r="3" fill="#E69F00"/>
  <text x="237.8" y="394.0" font-size="11.5" fill="#24292f" text-anchor="start" font-weight="400">bubbleSort</text>
  <line x1="321.8" y1="390.0" x2="343.8" y2="390.0" stroke="#009E73" stroke-width="2.4" stroke-dasharray="2 3"/>
  <circle cx="332.8" cy="390.0" r="3" fill="#009E73"/>
  <text x="349.8" y="394.0" font-size="11.5" fill="#24292f" text-anchor="start" font-weight="400">blockSort</text>
</svg>
